<svg xmlns="http://www.w3.org/2000/svg" version="1.1" style="font-family:Lato, &#x27;Helvetica Neue&#x27;, Helvetica, Arial, sans-serif;font-size:18px;background-color:white;text-rendering:optimizeLegibility;-webkit-font-smoothing:antialiased" width="850" height="600" viewBox="0 0 850 600"><g class="HeaderView"><g transform="translate(774, 15) scale(0.29)"><svg width="210" height="120" viewBox="0 0 210 120" fill="none" xmlns="http://www.w3.org/2000/svg">
<g clip-path="url(#clip0)">
  <path d="M0 0h210v107.89H0V0z" fill="#002147" />
  <path
    d="M40.98 32.25c0 2.36-.38 4.53-1.12 6.51a14.26 14.26 0 01-8.1 8.4c-1.9.78-4.02 1.17-6.34 1.17-2.31 0-4.42-.39-6.33-1.17a14.31 14.31 0 01-8.08-8.4 18.29 18.29 0 01-1.12-6.51c0-2.36.38-4.53 1.12-6.5.75-1.97 1.8-3.67 3.17-5.1 1.37-1.43 3-2.55 4.9-3.34 1.92-.8 4.03-1.19 6.34-1.19 2.32 0 4.43.4 6.34 1.19 1.92.8 3.56 1.9 4.93 3.34a14.87 14.87 0 013.17 5.1 18.1 18.1 0 011.12 6.5zm-4.38 0c0-1.94-.26-3.68-.8-5.22a10.91 10.91 0 00-2.24-3.89 9.68 9.68 0 00-3.52-2.46 11.95 11.95 0 00-4.62-.86c-1.68 0-3.21.28-4.6.86a9.88 9.88 0 00-3.54 2.46 10.91 10.91 0 00-2.24 3.9c-.53 1.53-.8 3.27-.8 5.2 0 1.94.27 3.68.8 5.22a11.17 11.17 0 002.24 3.9 10.01 10.01 0 003.55 2.44c1.38.56 2.9.83 4.6.83 1.7 0 3.24-.27 4.61-.83a9.8 9.8 0 003.52-2.44 11.17 11.17 0 002.25-3.9c.53-1.54.8-3.28.8-5.21zm26.22-6.54V48H60.5c-.56 0-.9-.27-1.05-.81l-.31-2.4a12.45 12.45 0 01-3.26 2.6c-1.2.64-2.58.96-4.13.96-1.22 0-2.3-.2-3.24-.6a6.52 6.52 0 01-2.33-1.7 7.37 7.37 0 01-1.43-2.67c-.3-1.04-.46-2.2-.46-3.45V25.7h3.91v14.22c0 1.68.38 2.99 1.15 3.91.77.93 1.96 1.39 3.54 1.39 1.16 0 2.24-.27 3.23-.82a10.42 10.42 0 002.8-2.28V25.7h3.91zm8.61 4.47a9.94 9.94 0 012.6-3.56 5.64 5.64 0 013.76-1.3c.47 0 .92.05 1.34.15.44.1.83.27 1.17.49L80 28.88c-.09.37-.3.55-.66.55-.2 0-.5-.04-.9-.13a6.21 6.21 0 00-3.24.18c-.54.2-1.03.5-1.47.92-.42.4-.81.9-1.17 1.5-.33.58-.64 1.26-.92 2.02V48h-3.94V25.71h2.25c.42 0 .72.08.88.25.16.16.27.44.33.83l.26 3.39zm61.16-13.7L122.75 48h-3.82l-7.99-24.05a21.95 21.95 0 01-.42-1.58 38.36 38.36 0 01-.44 1.58L102.05 48h-3.83L88.4 16.47h3.54c.38 0 .7.1.95.29.26.2.43.43.5.73l6.52 21.9c.1.4.2.83.28 1.28.1.46.2.94.29 1.46l.3-1.46c.12-.47.25-.9.38-1.27l7.41-21.91c.1-.25.26-.48.51-.69.27-.22.58-.33.95-.33h1.23c.38 0 .69.1.92.29.24.2.41.43.53.73l7.4 21.9a28.4 28.4 0 01.68 2.62 29.52 29.52 0 01.52-2.61l6.54-21.91c.07-.27.23-.5.48-.7.27-.21.58-.32.95-.32h3.32zm9.35 8.88c1.63 0 3.1.27 4.4.82a9.43 9.43 0 015.46 5.94c.5 1.4.74 2.98.74 4.73 0 1.76-.25 3.34-.74 4.75a9.43 9.43 0 01-5.46 5.92c-1.3.52-2.77.79-4.4.79-1.64 0-3.12-.27-4.44-.8a9.42 9.42 0 01-3.35-2.3c-.92-1-1.63-2.2-2.13-3.61-.49-1.41-.73-3-.73-4.75s.24-3.33.73-4.73c.5-1.43 1.2-2.64 2.13-3.63.93-1 2.04-1.77 3.35-2.31 1.32-.55 2.8-.82 4.44-.82zm0 19.89c2.2 0 3.84-.73 4.93-2.2 1.08-1.48 1.63-3.54 1.63-6.18 0-2.66-.55-4.72-1.63-6.2-1.09-1.49-2.73-2.23-4.93-2.23-1.12 0-2.09.2-2.93.57-.82.39-1.5.94-2.06 1.65-.55.72-.96 1.61-1.24 2.67-.26 1.04-.4 2.22-.4 3.54 0 2.64.55 4.7 1.64 6.18 1.1 1.47 2.76 2.2 4.99 2.2zm17.97-15.07a9.94 9.94 0 012.6-3.56 5.64 5.64 0 013.76-1.3c.47 0 .91.05 1.34.15.44.1.83.27 1.16.49l-.28 2.92c-.09.37-.31.55-.66.55-.2 0-.5-.04-.9-.13a6.2 6.2 0 00-3.24.18c-.54.2-1.03.5-1.47.92-.43.4-.82.9-1.17 1.5a13.1 13.1 0 00-.92 2.02V48h-3.94V25.71h2.24c.43 0 .72.08.88.25.17.16.28.44.33.83l.27 3.39zm15.04-14.59V48h-3.92V15.6h3.92zm19.55 15.43a6.22 6.22 0 00-2.38-2.05 6.7 6.7 0 00-2.86-.6c-2.07 0-3.66.75-4.77 2.23-1.12 1.48-1.68 3.6-1.68 6.33 0 1.46.13 2.7.38 3.74a7.29 7.29 0 001.1 2.56 4.35 4.35 0 001.78 1.45c.7.3 1.5.46 2.4.46 1.29 0 2.41-.3 3.36-.88a9.6 9.6 0 002.67-2.49V31.02zm3.91-15.43V48h-2.33c-.56 0-.9-.27-1.06-.81l-.35-2.71a12.13 12.13 0 01-3.25 2.77 8.28 8.28 0 01-4.23 1.06 7.31 7.31 0 01-6.14-2.9c-.73-.96-1.3-2.15-1.69-3.57a18.35 18.35 0 01.07-9.48 11.29 11.29 0 011.89-3.7 8.7 8.7 0 017.06-3.34 7.96 7.96 0 016.12 2.62V15.59h3.91zM46.61 70.71V93H42.7V70.71h3.91zm.84-7c0 .39-.08.75-.24 1.09-.15.32-.35.61-.62.88-.25.25-.55.44-.9.59a2.67 2.67 0 01-2.16 0 2.9 2.9 0 01-1.45-1.47 2.67 2.67 0 010-2.16c.15-.35.35-.65.6-.9.25-.27.53-.47.85-.62a2.67 2.67 0 012.16 0c.35.15.65.35.9.62.27.25.47.55.62.9.16.34.24.7.24 1.08zm7.97 10.24c.49-.54 1-1.04 1.54-1.48a9.85 9.85 0 013.66-1.84 8.96 8.96 0 015.43.35c.94.4 1.72.97 2.33 1.71.63.74 1.11 1.62 1.43 2.67.32 1.04.49 2.19.49 3.45V93h-3.94V78.81c0-1.69-.4-3-1.17-3.92-.76-.93-1.93-1.4-3.5-1.4-1.15 0-2.24.27-3.25.83-1 .56-1.92 1.31-2.77 2.27V93h-3.94V70.71h2.35c.56 0 .9.28 1.04.82l.3 2.42zm57.7 3.3c0 2.36-.37 4.5-1.11 6.44a14.3 14.3 0 01-3.17 4.98c-1.37 1.37-3 2.45-4.93 3.2-1.9.76-4.02 1.13-6.33 1.13H85.8V61.47h11.77c2.31 0 4.42.39 6.33 1.15a13.8 13.8 0 018.1 8.18 17.75 17.75 0 011.12 6.45zm-4.37 0c0-1.94-.26-3.67-.8-5.2a10.94 10.94 0 00-2.23-3.87 9.57 9.57 0 00-3.53-2.42 12.23 12.23 0 00-4.61-.83h-7.5v24.62h7.5c1.7 0 3.24-.28 4.61-.84a9.7 9.7 0 003.53-2.4 10.94 10.94 0 002.24-3.87c.53-1.53.8-3.26.8-5.2zm19.8 5.72c-1.8.06-3.34.2-4.62.44-1.26.22-2.3.51-3.1.88-.8.36-1.37.8-1.74 1.3-.35.5-.53 1.05-.53 1.67 0 .58.1 1.1.3 1.52a3 3 0 00.76 1.05c.34.27.73.46 1.17.6.45.11.94.17 1.45.17a7.28 7.28 0 003.5-.81 11.95 11.95 0 002.82-2.2v-4.62zm-12.65-9.11a12.73 12.73 0 013.98-2.66c1.43-.59 3-.88 4.73-.88 1.25 0 2.36.2 3.33.61a6.81 6.81 0 013.94 4.38c.33 1.04.5 2.19.5 3.43V93h-1.74a1.8 1.8 0 01-.88-.18c-.2-.13-.36-.38-.48-.74l-.44-2.12c-.59.55-1.16 1.03-1.72 1.46a9.48 9.48 0 01-3.74 1.7c-.69.15-1.46.23-2.3.23-.87 0-1.69-.12-2.45-.35a5.34 5.34 0 01-3.34-2.93 6.64 6.64 0 01-.49-2.64c0-.88.25-1.72.73-2.53a6.33 6.33 0 012.35-2.17c1.09-.63 2.5-1.15 4.25-1.54 1.75-.41 3.89-.65 6.42-.7v-1.75c0-1.73-.37-3.03-1.12-3.91-.75-.9-1.84-1.34-3.28-1.34-.97 0-1.78.12-2.44.37-.64.23-1.2.5-1.7.81l-1.23.82c-.33.23-.67.35-1 .35-.27 0-.5-.07-.69-.2a2.1 2.1 0 01-.48-.53l-.7-1.25zm27.67 19.5c-1.76 0-3.12-.5-4.07-1.48-.94-.98-1.41-2.4-1.41-4.25V74h-2.68a.9.9 0 01-.6-.2c-.16-.14-.24-.36-.24-.66v-1.56l3.65-.46.9-6.89c.05-.22.14-.4.29-.52a.88.88 0 01.62-.22H142v7.67h6.44V74h-6.44v13.38c0 .94.22 1.63.68 2.09.45.45 1.04.68 1.76.68a3.21 3.21 0 001.85-.53l.55-.35c.16-.12.3-.18.41-.18.2 0 .4.13.55.38l1.15 1.87a7.45 7.45 0 01-2.44 1.5c-.96.35-1.94.52-2.95.52zm19.68-10.4c-1.8.07-3.34.21-4.62.45-1.26.22-2.3.51-3.1.88-.8.36-1.37.8-1.74 1.3-.35.5-.53 1.05-.53 1.67 0 .58.1 1.1.3 1.52.18.42.44.77.76 1.05.34.27.73.46 1.17.6.45.11.94.17 1.45.17a7.3 7.3 0 003.5-.81 12.04 12.04 0 002.82-2.2v-4.62zm-12.65-9.1a12.72 12.72 0 013.99-2.66c1.42-.59 3-.88 4.72-.88 1.25 0 2.36.2 3.33.61a6.81 6.81 0 013.94 4.38c.33 1.04.5 2.19.5 3.43V93h-1.74a1.8 1.8 0 01-.88-.18c-.2-.13-.36-.38-.48-.74l-.44-2.12c-.59.55-1.16 1.03-1.72 1.46a9.48 9.48 0 01-3.74 1.7c-.69.15-1.46.23-2.3.23-.87 0-1.69-.12-2.45-.35a5.33 5.33 0 01-3.34-2.93 6.62 6.62 0 01-.49-2.64c0-.88.25-1.72.73-2.53a6.33 6.33 0 012.35-2.17c1.09-.63 2.5-1.15 4.25-1.54 1.74-.41 3.89-.65 6.42-.7v-1.75c0-1.73-.37-3.03-1.12-3.91-.75-.9-1.84-1.34-3.28-1.34-.97 0-1.78.12-2.44.37-.64.23-1.2.5-1.7.81-.46.3-.87.57-1.22.82-.34.23-.68.35-1.02.35-.26 0-.49-.07-.68-.2-.19-.14-.35-.32-.48-.53l-.7-1.25z"
    fill="#fff"
  />
  <path fill="#D42B21" d="M0 106.79h210V120H0z" />
</g>
<defs>
  <clipPath id="clip0"><path fill="#fff" d="M0 0h210v120H0z" /></clipPath>
</defs>
</svg></g><a href="https://ourworldindata.org/grapher/temperature-anomaly" style="font-family:&quot;Playfair Display&quot;, Georgia, &quot;Times New Roman&quot;, serif" target="_blank"><text font-size="25.20" x="15.0" y="35.2" fill="#555"><tspan x="15" y="35.160000000000004">Average temperature anomaly, Global</tspan></text></a><text font-size="14.40" x="15.0" y="55.7" fill="#666"><tspan x="15" y="55.72">Global average land-sea temperature anomaly relative to the 1961-1990 average temperature. </tspan></text></g><g class="LineChart"><defs><clipPath id="boundsClip-3"><rect x="50.662" y="0" width="830" height="928.4"></rect></clipPath></defs><g class="AxisBoxView"><g class="HorizontalAxis"><line x1="60.7" y1="521.6" x2="60.7" y2="525.6" stroke="#ccc"></line><line x1="184" y1="521.6" x2="184" y2="525.6" stroke="#ccc"></line><line x1="266.3" y1="521.6" x2="266.3" y2="525.6" stroke="#ccc"></line><line x1="348.5" y1="521.6" x2="348.5" y2="525.6" stroke="#ccc"></line><line x1="430.7" y1="521.6" x2="430.7" y2="525.6" stroke="#ccc"></line><line x1="513" y1="521.6" x2="513" y2="525.6" stroke="#ccc"></line><line x1="595.2" y1="521.6" x2="595.2" y2="525.6" stroke="#ccc"></line><line x1="677.5" y1="521.6" x2="677.5" y2="525.6" stroke="#ccc"></line><line x1="755.6" y1="521.6" x2="755.6" y2="525.6" stroke="#ccc"></line><text x="60.7" y="542.8" fill="#666" text-anchor="middle" font-size="16.2">1850</text><text x="184" y="542.8" fill="#666" text-anchor="middle" font-size="16.2">1880</text><text x="266.3" y="542.8" fill="#666" text-anchor="middle" font-size="16.2">1900</text><text x="348.5" y="542.8" fill="#666" text-anchor="middle" font-size="16.2">1920</text><text x="430.7" y="542.8" fill="#666" text-anchor="middle" font-size="16.2">1940</text><text x="513" y="542.8" fill="#666" text-anchor="middle" font-size="16.2">1960</text><text x="595.2" y="542.8" fill="#666" text-anchor="middle" font-size="16.2">1980</text><text x="677.5" y="542.8" fill="#666" text-anchor="middle" font-size="16.2">2000</text><text x="755.6" y="542.8" fill="#666" text-anchor="middle" font-size="16.2">2019</text></g><g class="VerticalAxis"><text x="55.66" y="460.7" fill="#666" dominant-baseline="middle" text-anchor="end" font-size="16.2">-0.4 ℃</text><text x="55.66" y="398.8" fill="#666" dominant-baseline="middle" text-anchor="end" font-size="16.2">-0.2 ℃</text><text x="55.66" y="336.9" fill="#666" dominant-baseline="middle" text-anchor="end" font-size="16.2">0 ℃</text><text x="55.66" y="275" fill="#666" dominant-baseline="middle" text-anchor="end" font-size="16.2">0.2 ℃</text><text x="55.66" y="213.2" fill="#666" dominant-baseline="middle" text-anchor="end" font-size="16.2">0.4 ℃</text><text x="55.66" y="151.3" fill="#666" dominant-baseline="middle" text-anchor="end" font-size="16.2">0.6 ℃</text><text x="55.66" y="89.4" fill="#666" dominant-baseline="middle" text-anchor="end" font-size="16.2">0.8 ℃</text></g><g class="AxisGridLines horizontalLines"><line x1="60.66" y1="460.7" x2="755.59" y2="460.7" stroke="#d3d3d3" stroke-dasharray="3,2"></line><line x1="60.66" y1="398.8" x2="755.59" y2="398.8" stroke="#d3d3d3" stroke-dasharray="3,2"></line><line x1="60.66" y1="336.9" x2="755.59" y2="336.9" stroke="#ccc"></line><line x1="60.66" y1="275" x2="755.59" y2="275" stroke="#d3d3d3" stroke-dasharray="3,2"></line><line x1="60.66" y1="213.2" x2="755.59" y2="213.2" stroke="#d3d3d3" stroke-dasharray="3,2"></line><line x1="60.66" y1="151.3" x2="755.59" y2="151.3" stroke="#d3d3d3" stroke-dasharray="3,2"></line><line x1="60.66" y1="89.4" x2="755.59" y2="89.4" stroke="#d3d3d3" stroke-dasharray="3,2"></line></g></g><g clip-path="url(#boundsClip-3)"><g class="HeightedLegend" style="cursor:default"><g class="legendMark"><g class="indicator"><path d="M759.585,96.9 H768.585 V93.33333333333334 H786.585" stroke="#999" stroke-width="0.5" fill="none"></path></g><rect x="755.585" y="86.58333333333334" width="71.855" height="13.5" fill="#fff" opacity="0"></rect><text font-size="13.50" x="790.6" y="97.4" fill="#c8c8c8"><tspan x="790.585" y="97.38333333333334">Upper</tspan></text></g><g class="legendMark"><g class="indicator"><path d="M759.585,109.2 H777.585 V108.83333333333334 H786.585" stroke="#999" stroke-width="0.5" fill="none"></path></g><rect x="755.585" y="102.08333333333334" width="79.415" height="13.5" fill="#fff" opacity="0"></rect><text font-size="13.50" x="790.6" y="112.9" fill="#ca2628"><tspan x="790.585" y="112.88333333333334">Median</tspan></text></g><g class="legendMark"><g class="indicator"><path d="M759.585,120.4 H777.585 V124.33333333333334 H786.585" stroke="#999" stroke-width="0.5" fill="none"></path></g><rect x="755.585" y="117.58333333333334" width="71.855" height="13.5" fill="#fff" opacity="0"></rect><text font-size="13.50" x="790.6" y="128.4" fill="#c8c8c8"><tspan x="790.585" y="128.38333333333335">Lower</tspan></text></g></g><g class="Lines"><rect x="61" y="79" width="695" height="443" fill="rgba(255,255,255,0)" opacity="0"></rect><g class="key-Global_1"><path stroke="#c8c8c8" stroke-linecap="round" d="M61 442L65 394L69 398L73 411L77 404L81 412L85 438L89 470L94 472L98 414L102 433L106 447L110 483L114 407L118 476L122 409L127 398L131 419L135 394L139 405L143 411L147 428L151 395L155 417L159 438L164 446L168 441L172 345L176 311L180 395L184 393L188 386L192 390L196 415L201 452L205 446L209 440L213 455L217 420L221 377L225 451L229 422L233 461L238 466L242 446L246 441L250 379L254 384L258 449L262 408L266 382L270 401L275 447L279 470L283 483L287 438L291 409L295 468L299 482L303 484L307 476L312 491L316 458L320 455L324 398L328 363L332 438L336 465L340 420L344 404L349 398L353 383L357 418L361 410L365 417L369 392L373 359L377 392L381 391L386 436L390 369L394 354L398 370L402 411L406 368L410 383L414 374L418 337L423 332L427 346L431 323L435 321L439 332L443 326L447 281L451 319L455 350L460 337L464 337L468 348L472 379L476 343L480 317L484 296L488 366L492 386L497 410L501 330L505 314L509 324L513 344L517 318L521 326L525 314L529 398L534 372L538 350L542 353L546 367L550 321L554 340L558 387L562 349L566 312L571 398L575 378L579 407L583 317L587 351L591 313L595 304L599 290L603 328L608 272L612 335L616 341L620 316L624 269L628 269L632 291L636 235L640 248L645 294L649 279L653 261L657 225L661 270L665 205L669 158L673 231L678 232L682 188L686 171L690 168L694 188L698 157L702 169L706 173L710 203L715 168L719 150L723 193L727 180L731 166L735 146L739 89L743 79L747 115L752 140L756 97" fill="none" stroke-width="1.5"></path></g><g class="key-Global_2"><path stroke="#c8c8c8" stroke-linecap="round" d="M61 468L65 422L69 424L73 436L77 430L81 437L85 465L89 495L94 498L98 442L102 462L106 487L110 522L114 448L118 511L122 448L127 442L131 463L135 438L139 440L143 442L147 462L151 427L155 450L159 472L164 481L168 477L172 382L176 345L180 427L184 426L188 417L192 422L196 445L201 478L205 474L209 467L213 484L217 448L221 410L225 487L229 463L233 500L238 506L242 488L246 479L250 416L254 421L258 485L262 447L266 421L270 438L275 480L279 505L283 516L287 472L291 442L295 499L299 511L303 515L307 506L312 521L316 487L320 483L324 427L328 399L332 472L336 499L340 459L344 438L349 429L353 410L357 444L361 437L365 442L369 419L373 385L377 415L381 415L386 459L390 393L394 378L398 394L402 436L406 392L410 405L414 395L418 357L423 351L427 364L431 343L435 343L439 362L443 354L447 308L451 342L455 372L460 367L464 368L468 374L472 404L476 365L480 340L484 318L488 388L492 406L497 429L501 348L505 331L509 339L513 360L517 334L521 341L525 330L529 413L534 387L538 365L542 366L546 378L550 333L554 352L558 400L562 362L566 321L571 407L575 387L579 416L583 326L587 361L591 324L595 313L599 298L603 340L608 283L612 347L616 352L620 330L624 284L628 283L632 309L636 254L640 269L645 315L649 302L653 283L657 248L661 292L665 227L669 182L673 255L678 257L682 211L686 194L690 191L694 209L698 180L702 192L706 196L710 227L715 193L719 175L723 215L727 202L731 189L735 168L739 111L743 101L747 140L752 164L756 120" fill="none" stroke-width="1.5"></path></g><g class="key-Global_0"><path stroke="#ca2628" stroke-linecap="round" d="M61 452L65 404L69 407L73 420L77 414L81 421L85 448L89 480L94 481L98 425L102 443L106 463L110 499L114 423L118 490L122 423L127 415L131 436L135 411L139 418L143 422L147 441L151 407L155 431L159 451L164 459L168 456L172 360L176 326L180 408L184 407L188 399L192 403L196 429L201 463L205 457L209 450L213 466L217 432L221 390L225 466L229 439L233 478L238 483L242 464L246 458L250 395L254 401L258 464L262 426L266 400L270 417L275 461L279 485L283 498L287 454L291 425L295 481L299 495L303 498L307 489L312 505L316 472L320 468L324 412L328 381L332 455L336 482L340 440L344 422L349 413L353 395L357 430L361 422L365 428L369 403L373 370L377 402L381 401L386 445L390 379L394 364L398 379L402 421L406 377L410 392L414 382L418 345L423 339L427 353L431 333L435 331L439 345L443 338L447 292L451 329L455 359L460 349L464 349L468 360L472 390L476 353L480 328L484 307L488 377L492 396L497 420L501 339L505 323L509 332L513 352L517 325L521 333L525 322L529 406L534 380L538 358L542 360L546 372L550 327L554 345L558 395L562 357L566 318L571 403L575 383L579 412L583 322L587 356L591 319L595 309L599 294L603 334L608 277L612 341L616 346L620 323L624 278L628 276L632 300L636 245L640 258L645 304L649 291L653 273L657 236L661 280L665 216L669 170L673 242L678 246L682 201L686 184L690 181L694 199L698 168L702 180L706 185L710 215L715 180L719 164L723 205L727 192L731 178L735 158L739 101L743 90L747 128L752 152L756 109" fill="none" stroke-width="1.5"></path></g></g></g></g><g class="SourcesFooter" style="fill:#777"><g class="clickable" style="fill:#777"><text font-size="12.60" x="15.0" y="567.9"><tspan x="15" y="567.88">Source: Hadley Centre (HadCRUT4)</tspan></text></g><text font-size="12.60" x="15.0" y="582.5"><tspan x="15" y="582.48">Note: The red line represents the median average temperature change, and grey lines represent the upper and lower 95% confidence intervals.</tspan></text><text font-size="12.60" x="431.9" y="567.9"><tspan x="431.926" y="567.88"><a target='_blank' style='fill: #777;' href='https://ourworldindata.org/co2-and-other-greenhouse-gas-emissions'>OurWorldInData.org/co2-and-other-greenhouse-gas-emissions</a> • <a style="fill: #777;" class="cclogo" href="http://creativecommons.org/licenses/by/4.0/deed.en_US" target="_blank">CC BY</a></tspan></text></g></svg>